<svg width="150" height="150" viewBox="0 0 150 150" fill="none" xmlns="http://www.w3.org/2000/svg">
<rect width="150" height="150" rx="20" fill="#F2F2F2"/>
<path d="M60.8832 49.6364H68.8093V84.0767C68.8093 87.7415 67.9485 90.9886 66.2269 93.8182C64.5053 96.6307 62.0849 98.8466 58.9656 100.466C55.8462 102.068 52.19 102.869 47.9968 102.869C43.8207 102.869 40.1729 102.068 37.0536 100.466C33.9343 98.8466 31.5138 96.6307 29.7923 93.8182C28.0707 90.9886 27.2099 87.7415 27.2099 84.0767V49.6364H35.1104V83.4375C35.1104 85.8068 35.6303 87.9119 36.6701 89.7528C37.7269 91.5938 39.2184 93.0426 41.1445 94.0994C43.0707 95.1392 45.3548 95.6591 47.9968 95.6591C50.6559 95.6591 52.9485 95.1392 54.8746 94.0994C56.8178 93.0426 58.3008 91.5938 59.3235 89.7528C60.3633 87.9119 60.8832 85.8068 60.8832 83.4375V49.6364Z" fill="black"/>
<path d="M69.6225 49.6364L84.1964 92.2841H84.7844L99.3583 49.6364H107.898L89.0543 102H79.9265L61.0827 49.6364H69.6225Z" fill="#1729CC"/>
<path d="M89.4691 102H81.0827L99.9265 49.6364H109.054L127.898 102H119.512L104.708 59.1477H104.299L89.4691 102ZM90.8754 81.4943H118.08V88.142H90.8754V81.4943Z" fill="black"/>
</svg>
